<mxfile host="app.diagrams.net" agent="Mozilla/5.0 (Windows NT 10.0; Win64; x64) AppleWebKit/537.36 (KHTML, like Gecko) Chrome/139.0.0.0 Safari/537.36 Edg/139.0.0.0" version="28.1.1">
  <diagram name="Page-1" id="Dc9u9emBxYf35oY0OBHQ">
    <mxGraphModel dx="1034" dy="666" grid="1" gridSize="10" guides="1" tooltips="1" connect="1" arrows="1" fold="1" page="1" pageScale="1" pageWidth="850" pageHeight="1100" math="0" shadow="0">
      <root>
        <mxCell id="0" />
        <mxCell id="1" parent="0" />
        <mxCell id="PCrmknRLg6h6ma3Kbnh2-1" value="pickOutro(profile, baby_wording)" style="whiteSpace=wrap;strokeWidth=2;" vertex="1" parent="1">
          <mxGeometry x="190" y="20" width="260" height="78" as="geometry" />
        </mxCell>
        <mxCell id="PCrmknRLg6h6ma3Kbnh2-2" value="profile == Norman ?" style="rhombus;strokeWidth=2;whiteSpace=wrap;" vertex="1" parent="1">
          <mxGeometry x="223" y="148" width="194" height="194" as="geometry" />
        </mxCell>
        <mxCell id="PCrmknRLg6h6ma3Kbnh2-3" value="out_norman_v1" style="whiteSpace=wrap;strokeWidth=2;" vertex="1" parent="1">
          <mxGeometry x="20" y="669" width="171" height="54" as="geometry" />
        </mxCell>
        <mxCell id="PCrmknRLg6h6ma3Kbnh2-4" value="profile == Torres ?" style="rhombus;strokeWidth=2;whiteSpace=wrap;" vertex="1" parent="1">
          <mxGeometry x="336" y="415" width="182" height="182" as="geometry" />
        </mxCell>
        <mxCell id="PCrmknRLg6h6ma3Kbnh2-5" value="out_torres_v1" style="whiteSpace=wrap;strokeWidth=2;" vertex="1" parent="1">
          <mxGeometry x="241" y="669" width="159" height="54" as="geometry" />
        </mxCell>
        <mxCell id="PCrmknRLg6h6ma3Kbnh2-6" value="out_neutral_v1" style="whiteSpace=wrap;strokeWidth=2;" vertex="1" parent="1">
          <mxGeometry x="450" y="669" width="169" height="54" as="geometry" />
        </mxCell>
        <mxCell id="PCrmknRLg6h6ma3Kbnh2-7" value="baby_wording ?" style="rhombus;strokeWidth=2;whiteSpace=wrap;" vertex="1" parent="1">
          <mxGeometry x="238" y="773" width="164" height="164" as="geometry" />
        </mxCell>
        <mxCell id="PCrmknRLg6h6ma3Kbnh2-8" value="apply baby wording" style="whiteSpace=wrap;strokeWidth=2;" vertex="1" parent="1">
          <mxGeometry x="112" y="1010" width="200" height="54" as="geometry" />
        </mxCell>
        <mxCell id="PCrmknRLg6h6ma3Kbnh2-9" value="no change" style="whiteSpace=wrap;strokeWidth=2;" vertex="1" parent="1">
          <mxGeometry x="362" y="1010" width="133" height="54" as="geometry" />
        </mxCell>
        <mxCell id="PCrmknRLg6h6ma3Kbnh2-10" value="return copy_id" style="whiteSpace=wrap;strokeWidth=2;" vertex="1" parent="1">
          <mxGeometry x="238" y="1114" width="165" height="54" as="geometry" />
        </mxCell>
        <mxCell id="PCrmknRLg6h6ma3Kbnh2-11" value="" style="curved=1;startArrow=none;endArrow=block;exitX=0.5;exitY=1;entryX=0.5;entryY=0;rounded=0;" edge="1" parent="1" source="PCrmknRLg6h6ma3Kbnh2-1" target="PCrmknRLg6h6ma3Kbnh2-2">
          <mxGeometry relative="1" as="geometry">
            <Array as="points" />
          </mxGeometry>
        </mxCell>
        <mxCell id="PCrmknRLg6h6ma3Kbnh2-12" value="yes" style="curved=1;startArrow=none;endArrow=block;exitX=0;exitY=0.81;entryX=0.5;entryY=0;rounded=0;" edge="1" parent="1" source="PCrmknRLg6h6ma3Kbnh2-2" target="PCrmknRLg6h6ma3Kbnh2-3">
          <mxGeometry relative="1" as="geometry">
            <Array as="points">
              <mxPoint x="105" y="378" />
            </Array>
          </mxGeometry>
        </mxCell>
        <mxCell id="PCrmknRLg6h6ma3Kbnh2-13" value="no" style="curved=1;startArrow=none;endArrow=block;exitX=0.9;exitY=1;entryX=0.5;entryY=0;rounded=0;" edge="1" parent="1" source="PCrmknRLg6h6ma3Kbnh2-2" target="PCrmknRLg6h6ma3Kbnh2-4">
          <mxGeometry relative="1" as="geometry">
            <Array as="points">
              <mxPoint x="427" y="378" />
            </Array>
          </mxGeometry>
        </mxCell>
        <mxCell id="PCrmknRLg6h6ma3Kbnh2-14" value="yes" style="curved=1;startArrow=none;endArrow=block;exitX=0.08;exitY=1;entryX=0.5;entryY=0;rounded=0;" edge="1" parent="1" source="PCrmknRLg6h6ma3Kbnh2-4" target="PCrmknRLg6h6ma3Kbnh2-5">
          <mxGeometry relative="1" as="geometry">
            <Array as="points">
              <mxPoint x="320" y="633" />
            </Array>
          </mxGeometry>
        </mxCell>
        <mxCell id="PCrmknRLg6h6ma3Kbnh2-15" value="no" style="curved=1;startArrow=none;endArrow=block;exitX=0.92;exitY=1;entryX=0.5;entryY=0;rounded=0;" edge="1" parent="1" source="PCrmknRLg6h6ma3Kbnh2-4" target="PCrmknRLg6h6ma3Kbnh2-6">
          <mxGeometry relative="1" as="geometry">
            <Array as="points">
              <mxPoint x="534" y="633" />
            </Array>
          </mxGeometry>
        </mxCell>
        <mxCell id="PCrmknRLg6h6ma3Kbnh2-16" value="" style="curved=1;startArrow=none;endArrow=block;exitX=0.5;exitY=1;entryX=0;entryY=0.25;rounded=0;" edge="1" parent="1" source="PCrmknRLg6h6ma3Kbnh2-3" target="PCrmknRLg6h6ma3Kbnh2-7">
          <mxGeometry relative="1" as="geometry">
            <Array as="points">
              <mxPoint x="105" y="748" />
            </Array>
          </mxGeometry>
        </mxCell>
        <mxCell id="PCrmknRLg6h6ma3Kbnh2-17" value="" style="curved=1;startArrow=none;endArrow=block;exitX=0.5;exitY=1;entryX=0.5;entryY=0;rounded=0;" edge="1" parent="1" source="PCrmknRLg6h6ma3Kbnh2-5" target="PCrmknRLg6h6ma3Kbnh2-7">
          <mxGeometry relative="1" as="geometry">
            <Array as="points" />
          </mxGeometry>
        </mxCell>
        <mxCell id="PCrmknRLg6h6ma3Kbnh2-18" value="" style="curved=1;startArrow=none;endArrow=block;exitX=0.5;exitY=1;entryX=1;entryY=0.25;rounded=0;" edge="1" parent="1" source="PCrmknRLg6h6ma3Kbnh2-6" target="PCrmknRLg6h6ma3Kbnh2-7">
          <mxGeometry relative="1" as="geometry">
            <Array as="points">
              <mxPoint x="534" y="748" />
            </Array>
          </mxGeometry>
        </mxCell>
        <mxCell id="PCrmknRLg6h6ma3Kbnh2-19" value="yes" style="curved=1;startArrow=none;endArrow=block;exitX=0.04;exitY=1;entryX=0.5;entryY=-0.01;rounded=0;" edge="1" parent="1" source="PCrmknRLg6h6ma3Kbnh2-7" target="PCrmknRLg6h6ma3Kbnh2-8">
          <mxGeometry relative="1" as="geometry">
            <Array as="points">
              <mxPoint x="212" y="973" />
            </Array>
          </mxGeometry>
        </mxCell>
        <mxCell id="PCrmknRLg6h6ma3Kbnh2-20" value="no" style="curved=1;startArrow=none;endArrow=block;exitX=0.96;exitY=1;entryX=0.5;entryY=-0.01;rounded=0;" edge="1" parent="1" source="PCrmknRLg6h6ma3Kbnh2-7" target="PCrmknRLg6h6ma3Kbnh2-9">
          <mxGeometry relative="1" as="geometry">
            <Array as="points">
              <mxPoint x="428" y="973" />
            </Array>
          </mxGeometry>
        </mxCell>
        <mxCell id="PCrmknRLg6h6ma3Kbnh2-21" value="" style="curved=1;startArrow=none;endArrow=block;exitX=0.5;exitY=0.99;entryX=0.16;entryY=-0.01;rounded=0;" edge="1" parent="1" source="PCrmknRLg6h6ma3Kbnh2-8" target="PCrmknRLg6h6ma3Kbnh2-10">
          <mxGeometry relative="1" as="geometry">
            <Array as="points">
              <mxPoint x="212" y="1089" />
            </Array>
          </mxGeometry>
        </mxCell>
        <mxCell id="PCrmknRLg6h6ma3Kbnh2-22" value="" style="curved=1;startArrow=none;endArrow=block;exitX=0.5;exitY=0.99;entryX=0.84;entryY=-0.01;rounded=0;" edge="1" parent="1" source="PCrmknRLg6h6ma3Kbnh2-9" target="PCrmknRLg6h6ma3Kbnh2-10">
          <mxGeometry relative="1" as="geometry">
            <Array as="points">
              <mxPoint x="428" y="1089" />
            </Array>
          </mxGeometry>
        </mxCell>
      </root>
    </mxGraphModel>
  </diagram>
</mxfile>
